<svg width="640" height="960" viewBox="0 0 640 960" fill="none" xmlns="http://www.w3.org/2000/svg">
  <defs>
    <linearGradient id="skyGlow" x1="320" y1="40" x2="320" y2="920" gradientUnits="userSpaceOnUse">
      <stop offset="0" stop-color="#F5E9D1"/>
      <stop offset="0.24" stop-color="#DCC9A3"/>
      <stop offset="0.56" stop-color="#9FB4C8"/>
      <stop offset="1" stop-color="#3B4C65"/>
    </linearGradient>
    <linearGradient id="frameEdge" x1="32" y1="12" x2="608" y2="948" gradientUnits="userSpaceOnUse">
      <stop offset="0" stop-color="#FFF1CE" stop-opacity="0.92"/>
      <stop offset="0.48" stop-color="#C79850" stop-opacity="0.18"/>
      <stop offset="1" stop-color="#FFF1CE" stop-opacity="0.66"/>
    </linearGradient>
    <radialGradient id="sunHalo" cx="0" cy="0" r="1" gradientUnits="userSpaceOnUse" gradientTransform="translate(320 246) rotate(90) scale(320 252)">
      <stop offset="0" stop-color="#FFF9E8" stop-opacity="0.98"/>
      <stop offset="0.42" stop-color="#FFE2A4" stop-opacity="0.74"/>
      <stop offset="0.76" stop-color="#FFE2A4" stop-opacity="0.18"/>
      <stop offset="1" stop-color="#FFE2A4" stop-opacity="0"/>
    </radialGradient>
    <linearGradient id="mistLayer" x1="320" y1="520" x2="320" y2="860" gradientUnits="userSpaceOnUse">
      <stop offset="0" stop-color="#F5F0E5" stop-opacity="0.18"/>
      <stop offset="0.5" stop-color="#D9E3EB" stop-opacity="0.12"/>
      <stop offset="1" stop-color="#E9F0F6" stop-opacity="0.04"/>
    </linearGradient>
    <linearGradient id="castleGlow" x1="320" y1="448" x2="320" y2="760" gradientUnits="userSpaceOnUse">
      <stop offset="0" stop-color="#FFF3D1" stop-opacity="0.82"/>
      <stop offset="0.35" stop-color="#FAD786" stop-opacity="0.38"/>
      <stop offset="1" stop-color="#FAD786" stop-opacity="0"/>
    </linearGradient>
    <linearGradient id="castleBody" x1="320" y1="468" x2="320" y2="756" gradientUnits="userSpaceOnUse">
      <stop offset="0" stop-color="#455870" stop-opacity="0.96"/>
      <stop offset="1" stop-color="#1A2433" stop-opacity="0.98"/>
    </linearGradient>
    <pattern id="hexPattern" width="64" height="56" patternUnits="userSpaceOnUse">
      <path d="M16 4L48 4L60 28L48 52L16 52L4 28Z" stroke="#FFF4D7" stroke-opacity="0.1" stroke-width="1.25" fill="none"/>
    </pattern>
    <filter id="softBlur" x="-20%" y="-20%" width="140%" height="140%">
      <feGaussianBlur stdDeviation="18"/>
    </filter>
    <filter id="towerGlow" x="-40%" y="-40%" width="180%" height="180%">
      <feGaussianBlur stdDeviation="10"/>
    </filter>
  </defs>

  <rect x="12" y="12" width="616" height="936" rx="28" fill="url(#skyGlow)"/>
  <rect x="12" y="12" width="616" height="936" rx="28" stroke="url(#frameEdge)" stroke-width="3"/>
  <rect x="28" y="28" width="584" height="904" rx="20" fill="url(#hexPattern)" opacity="0.48"/>

  <ellipse cx="320" cy="248" rx="176" ry="132" fill="url(#sunHalo)"/>
  <ellipse cx="320" cy="520" rx="228" ry="112" fill="url(#castleGlow)" filter="url(#softBlur)"/>

  <path d="M44 668C120 634 186 642 246 676C292 702 354 708 418 678C482 648 546 646 596 674V932H44V668Z" fill="#4A5D70" fill-opacity="0.42"/>
  <path d="M44 734C122 696 194 708 252 736C306 762 358 762 422 730C492 694 548 700 596 726V932H44V734Z" fill="#243245" fill-opacity="0.58"/>

  <ellipse cx="320" cy="700" rx="204" ry="84" fill="url(#mistLayer)"/>
  <ellipse cx="320" cy="780" rx="252" ry="92" fill="url(#mistLayer)"/>

  <g>
    <path d="M218 740V604H246V564L270 540L294 564V516H322V564L346 540L370 564V604H398V740H218Z" fill="url(#castleBody)"/>
    <path d="M206 740H410" stroke="#FFF3D1" stroke-opacity="0.18" stroke-width="4" stroke-linecap="round"/>
    <path d="M246 604H218L232 584H246V604Z" fill="#2C3B50"/>
    <path d="M398 604H370V584H384L398 604Z" fill="#2C3B50"/>
    <path d="M246 604V476H270V604H246Z" fill="#213043"/>
    <path d="M346 604V476H370V604H346Z" fill="#213043"/>
    <path d="M290 516L308 484L326 516H290Z" fill="#213043"/>
    <path d="M242 476L258 444L274 476H242Z" fill="#213043"/>
    <path d="M342 476L358 444L374 476H342Z" fill="#213043"/>
    <rect x="302" y="622" width="26" height="118" rx="13" fill="#172130"/>
    <rect x="258" y="624" width="18" height="42" rx="9" fill="#FFE9B0" fill-opacity="0.72"/>
    <rect x="340" y="624" width="18" height="42" rx="9" fill="#FFE9B0" fill-opacity="0.72"/>
    <rect x="302" y="560" width="18" height="34" rx="9" fill="#FFE9B0" fill-opacity="0.82"/>
    <rect x="252" y="516" width="12" height="26" rx="6" fill="#FFE9B0" fill-opacity="0.76"/>
    <rect x="352" y="516" width="12" height="26" rx="6" fill="#FFE9B0" fill-opacity="0.76"/>
    <ellipse cx="267" cy="646" rx="26" ry="44" fill="#FFE9B0" fill-opacity="0.24" filter="url(#towerGlow)"/>
    <ellipse cx="349" cy="646" rx="26" ry="44" fill="#FFE9B0" fill-opacity="0.24" filter="url(#towerGlow)"/>
    <ellipse cx="311" cy="580" rx="32" ry="48" fill="#FFF2C9" fill-opacity="0.2" filter="url(#towerGlow)"/>
  </g>

  <rect x="56" y="742" width="528" height="138" rx="18" fill="#FBF6EA" fill-opacity="0.05" stroke="#FFF2CC" stroke-opacity="0.14"/>
</svg>
